<svg xmlns="http://www.w3.org/2000/svg" width="16" height="15.97" viewBox="0 0 16 15.97">
  <metadata><?xpacket begin="﻿" id="W5M0MpCehiHzreSzNTczkc9d"?>
<x:xmpmeta xmlns:x="adobe:ns:meta/" x:xmptk="Adobe XMP Core 5.6-c138 79.159824, 2016/09/14-01:09:01        ">
   <rdf:RDF xmlns:rdf="http://www.w3.org/1999/02/22-rdf-syntax-ns#">
      <rdf:Description rdf:about=""/>
   </rdf:RDF>
</x:xmpmeta>
                                                                                                    
                                                                                                    
                                                                                                    
                                                                                                    
                                                                                                    
                                                                                                    
                                                                                                    
                                                                                                    
                                                                                                    
                                                                                                    
                                                                                                    
                                                                                                    
                                                                                                    
                                                                                                    
                                                                                                    
                                                                                                    
                                                                                                    
                                                                                                    
                                                                                                    
                                                                                                    
                           
<?xpacket end="w"?></metadata>
<defs>
    <style>
      .cls-1 {
        fill: #fff;
        fill-rule: evenodd;
      }
    </style>
  </defs>
  <path class="cls-1" d="M210.617,1556.15h-5.681l2.241-2.68c0.036,0,.067.02,0.1,0.02a0.668,0.668,0,0,0,.667-0.67,0.667,0.667,0,0,0-1.334,0,0.673,0.673,0,0,0,.046.23l-2.592,3.1h-0.244l-2.591-3.1a0.7,0.7,0,0,0,.045-0.23,0.668,0.668,0,0,0-1.335,0,0.67,0.67,0,0,0,.668.67c0.037,0,.069-0.02.1-0.02l2.242,2.68h-5.681a1.335,1.335,0,0,0-1.333,1.33v9.32a1.335,1.335,0,0,0,1.333,1.33h13.342a1.335,1.335,0,0,0,1.333-1.33v-9.32A1.335,1.335,0,0,0,210.617,1556.15Zm-2.669,9.32a1.335,1.335,0,0,1-1.334,1.33h-8a1.336,1.336,0,0,1-1.335-1.33v-6.66a1.336,1.336,0,0,1,1.335-1.33h8a1.335,1.335,0,0,1,1.334,1.33v6.66Zm1.966-5.95a0.95,0.95,0,1,1,.952-0.95A0.954,0.954,0,0,1,209.914,1559.52Z" transform="translate(-195.938 -1552.16)"/>
</svg>
