<svg xmlns="http://www.w3.org/2000/svg" width="16" height="15.6" viewBox="0 0 16 15.6">
  <metadata><?xpacket begin="﻿" id="W5M0MpCehiHzreSzNTczkc9d"?>
<x:xmpmeta xmlns:x="adobe:ns:meta/" x:xmptk="Adobe XMP Core 5.6-c138 79.159824, 2016/09/14-01:09:01        ">
   <rdf:RDF xmlns:rdf="http://www.w3.org/1999/02/22-rdf-syntax-ns#">
      <rdf:Description rdf:about=""/>
   </rdf:RDF>
</x:xmpmeta>
                                                                                                    
                                                                                                    
                                                                                                    
                                                                                                    
                                                                                                    
                                                                                                    
                                                                                                    
                                                                                                    
                                                                                                    
                                                                                                    
                                                                                                    
                                                                                                    
                                                                                                    
                                                                                                    
                                                                                                    
                                                                                                    
                                                                                                    
                                                                                                    
                                                                                                    
                                                                                                    
                           
<?xpacket end="w"?></metadata>
<defs>
    <style>
      .cls-1 {
        fill: #fff;
        fill-rule: evenodd;
      }
    </style>
  </defs>
  <path class="cls-1" d="M207.269,2057.43c-0.6-.04-1.291-0.08-2.034-0.1a6.868,6.868,0,0,0,1.672-2.25,1.56,1.56,0,0,0,.751.43,1.669,1.669,0,0,0,.382.05,1.557,1.557,0,0,0,.832-0.24,1.616,1.616,0,0,0-1.223-2.95,8.781,8.781,0,0,0,.048-0.88,0.559,0.559,0,0,0-.558-0.56H196.793a0.559,0.559,0,0,0-.559.56,7.728,7.728,0,0,0,2.459,5.84c-0.742.02-1.43,0.06-2.031,0.1-2.092.15-2.7,0.29-2.7,0.93s0.609,0.79,2.7.94c1.419,0.1,3.3.15,5.3,0.15s3.885-.05,5.3-0.15c2.093-.15,2.7-0.29,2.7-0.94S209.362,2057.58,207.269,2057.43Zm0.268-4.29a0.012,0.012,0,0,1,.013-0.01,0.941,0.941,0,0,1,1.4,1.03,0.913,0.913,0,0,1-.423.58,0.923,0.923,0,0,1-.707.11,0.941,0.941,0,0,1-.578-0.42,0.584,0.584,0,0,0-.04-0.05A7.95,7.95,0,0,0,207.537,2053.14Zm-10.165-1.08h9.187c-0.219,3.04-2.2,5.42-4.593,5.42S197.592,2055.1,197.372,2052.06Zm3.557-2.28h0.038a0.457,0.457,0,0,0,.355-0.18,0.452,0.452,0,0,0,.067-0.43,3.175,3.175,0,0,1,.123-2.29,2.937,2.937,0,0,0,.572-2.37,1.057,1.057,0,0,0-.665-0.67,0.451,0.451,0,0,0-.274.86,0.216,0.216,0,0,1,.1.13,2.058,2.058,0,0,1-.484,1.56l-0.022.03c-0.045.08-.094,0.16-0.146,0.24-0.681,1.05-.886,1.88-0.607,2.46A1.207,1.207,0,0,0,200.929,2049.78Zm2.386,0.08h0.031a0.429,0.429,0,0,0,.333-0.16,0.438,0.438,0,0,0,.064-0.41,1.789,1.789,0,0,1,.063-1.28,1.9,1.9,0,0,0,.363-1.58,0.789,0.789,0,0,0-.505-0.5,0.427,0.427,0,0,0-.523.28,0.44,0.44,0,0,0,.034.33,0.4,0.4,0,0,0,.249.2,0.133,0.133,0,0,0-.046-0.01,1.153,1.153,0,0,1-.281.82l-0.026.04c-0.024.04-.05,0.09-0.078,0.13a1.743,1.743,0,0,0-.382,1.66A0.877,0.877,0,0,0,203.315,2049.86Z" transform="translate(-193.969 -2043.84)"/>
</svg>
