<svg xmlns="http://www.w3.org/2000/svg" width="11.657" height="15.97" viewBox="0 0 11.657 15.97">
  <metadata><?xpacket begin="﻿" id="W5M0MpCehiHzreSzNTczkc9d"?>
<x:xmpmeta xmlns:x="adobe:ns:meta/" x:xmptk="Adobe XMP Core 5.6-c138 79.159824, 2016/09/14-01:09:01        ">
   <rdf:RDF xmlns:rdf="http://www.w3.org/1999/02/22-rdf-syntax-ns#">
      <rdf:Description rdf:about=""/>
   </rdf:RDF>
</x:xmpmeta>
                                                                                                    
                                                                                                    
                                                                                                    
                                                                                                    
                                                                                                    
                                                                                                    
                                                                                                    
                                                                                                    
                                                                                                    
                                                                                                    
                                                                                                    
                                                                                                    
                                                                                                    
                                                                                                    
                                                                                                    
                                                                                                    
                                                                                                    
                                                                                                    
                                                                                                    
                                                                                                    
                           
<?xpacket end="w"?></metadata>
<defs>
    <style>
      .cls-1 {
        fill: #fff;
        fill-rule: evenodd;
      }
    </style>
  </defs>
  <path class="cls-1" d="M210.22,1796.01l-3.065-8.26v-2.44a1.464,1.464,0,0,0,.994-1.38v-0.4a1.468,1.468,0,0,0-1.479-1.46H202.3a1.468,1.468,0,0,0-1.479,1.46v0.4a1.462,1.462,0,0,0,1,1.38v2.44l-3.059,8.25a1.453,1.453,0,0,0,.142,1.37,1.473,1.473,0,0,0,1.228.65h8.722a1.471,1.471,0,0,0,1.227-.65A1.452,1.452,0,0,0,210.22,1796.01Zm-8.111-1.87a0.5,0.5,0,1,1,.5.5A0.5,0.5,0,0,1,202.109,1794.14Zm3.25,0.44a0.86,0.86,0,1,1-.871.86A0.862,0.862,0,0,1,205.359,1794.58Zm-0.742-1.9a0.628,0.628,0,0,1,1.256,0A0.628,0.628,0,0,1,204.617,1792.68Zm-1.828-4.76v-3.01l0-.48H202.3a0.5,0.5,0,0,1-.5-0.5v-0.4a0.5,0.5,0,0,1,.5-0.49h4.375a0.5,0.5,0,0,1,.5.49v0.4a0.506,0.506,0,0,1-.506.5h-0.489v3.49l0.859,2.31-0.034.03c-0.639.66-5.308,0.74-5.308,0.74h-0.045Zm1.353,1.87a0.685,0.685,0,0,0,.681-0.68,0.682,0.682,0,0,0-1.363,0A0.684,0.684,0,0,0,204.142,1789.79Z" transform="translate(-198.656 -1782.06)"/>
</svg>
