<?xml version="1.0" encoding="UTF-8"?><!DOCTYPE svg PUBLIC "-//W3C//DTD SVG 1.1//EN" "http://www.w3.org/Graphics/SVG/1.1/DTD/svg11.dtd"><svg xmlns="http://www.w3.org/2000/svg"><defs><style>.cls-1{fill:#fff;fill-rule:evenodd}</style><style>.cls-1{fill:#fff;fill-rule:evenodd}</style><style>.cls-1{fill:#fff;fill-rule:evenodd}</style><style>.cls-1{fill:#fff;fill-rule:evenodd}</style></defs><symbol id="icon-1" viewBox="0 0 16 15.97"><path class="cls-1" d="M14.679 3.99H8.998l2.241-2.68c.036 0 .067.02.1.02a.668.668 0 0 0 .667-.67.667.667 0 0 0-1.334 0 .673.673 0 0 0 .046.23l-2.592 3.1h-.244L5.291.89a.7.7 0 0 0 .045-.23.668.668 0 0 0-1.335 0 .67.67 0 0 0 .668.67c.037 0 .069-.02.1-.02l2.242 2.68H1.33A1.335 1.335 0 0 0-.003 5.32v9.32a1.335 1.335 0 0 0 1.333 1.33h13.342a1.335 1.335 0 0 0 1.333-1.33V5.32a1.335 1.335 0 0 0-1.326-1.33zm-2.669 9.32a1.335 1.335 0 0 1-1.334 1.33h-8a1.336 1.336 0 0 1-1.335-1.33V6.65a1.336 1.336 0 0 1 1.335-1.33h8a1.335 1.335 0 0 1 1.334 1.33v6.66zm1.966-5.95a.95.95 0 1 1 .952-.95.954.954 0 0 1-.952.95z"/></symbol><symbol id="icon-2" viewBox="0 0 11.657 15.97"><path class="cls-1" d="M11.564 13.95L8.499 5.69V3.25a1.464 1.464 0 0 0 .994-1.38v-.4A1.468 1.468 0 0 0 8.014.01h-4.37a1.468 1.468 0 0 0-1.479 1.46v.4a1.462 1.462 0 0 0 1 1.38v2.44L.106 13.94a1.453 1.453 0 0 0 .142 1.37 1.473 1.473 0 0 0 1.228.65h8.722a1.471 1.471 0 0 0 1.227-.65 1.452 1.452 0 0 0 .139-1.36zm-8.111-1.87a.5.5 0 1 1 .5.5.5.5 0 0 1-.5-.5zm3.25.44a.86.86 0 1 1-.871.86.862.862 0 0 1 .871-.86zm-.742-1.9a.628.628 0 0 1 1.256 0 .628.628 0 0 1-1.256 0zM4.133 5.86V2.37h-.489a.5.5 0 0 1-.5-.5v-.4a.5.5 0 0 1 .5-.49h4.375a.5.5 0 0 1 .5.49v.4a.506.506 0 0 1-.506.5h-.489v3.49l.859 2.31-.034.03c-.639.66-5.308.74-5.308.74h-.045zm1.353 1.87a.685.685 0 0 0 .681-.68.682.682 0 0 0-1.363 0 .684.684 0 0 0 .682.68z"/></symbol><symbol id="icon-3" viewBox="0 0 16 15.6"><path class="cls-1" d="M13.3 13.59c-.6-.04-1.291-.08-2.034-.1a6.868 6.868 0 0 0 1.672-2.25 1.56 1.56 0 0 0 .751.43 1.669 1.669 0 0 0 .382.05 1.557 1.557 0 0 0 .832-.24 1.616 1.616 0 0 0-1.223-2.95 8.781 8.781 0 0 0 .048-.88.559.559 0 0 0-.558-.56H2.824a.559.559 0 0 0-.559.56 7.728 7.728 0 0 0 2.459 5.84c-.742.02-1.43.06-2.031.1-2.092.15-2.7.29-2.7.93s.609.79 2.7.94c1.419.1 3.3.15 5.3.15s3.885-.05 5.3-.15c2.093-.15 2.7-.29 2.7-.94s-.6-.78-2.693-.93zm.268-4.29a.012.012 0 0 1 .013-.01.941.941 0 0 1 1.4 1.03.913.913 0 0 1-.423.58.923.923 0 0 1-.707.11.941.941 0 0 1-.578-.42.584.584 0 0 0-.04-.05 7.95 7.95 0 0 0 .335-1.24zM3.403 8.22h9.187c-.219 3.04-2.2 5.42-4.593 5.42s-4.374-2.38-4.594-5.42zM6.96 5.94h.038a.457.457 0 0 0 .355-.18.452.452 0 0 0 .067-.43 3.175 3.175 0 0 1 .123-2.29A2.937 2.937 0 0 0 8.115.67 1.057 1.057 0 0 0 7.45 0a.451.451 0 0 0-.274.86.216.216 0 0 1 .1.13 2.058 2.058 0 0 1-.484 1.56l-.022.03a4.4 4.4 0 0 1-.146.24c-.681 1.05-.886 1.88-.607 2.46a1.207 1.207 0 0 0 .943.66zm2.386.08h.031a.429.429 0 0 0 .333-.16.438.438 0 0 0 .064-.41 1.789 1.789 0 0 1 .063-1.28 1.9 1.9 0 0 0 .363-1.58.789.789 0 0 0-.505-.5.427.427 0 0 0-.523.28.44.44 0 0 0 .034.33.4.4 0 0 0 .249.2.133.133 0 0 0-.046-.01 1.153 1.153 0 0 1-.281.82l-.026.04c-.024.04-.05.09-.078.13a1.743 1.743 0 0 0-.382 1.66.877.877 0 0 0 .704.48z"/></symbol><symbol id="icon-4" viewBox="0 0 15.969 15"><path class="cls-1" d="M15.921.03a.157.157 0 0 0-.173-.02L.074 7.94a.171.171 0 0 0-.088.16.169.169 0 0 0 .112.14L5.059 9.8a.149.149 0 0 0 .156-.03l7.545-6.39-5.795 6.79a.169.169 0 0 0-.032.15.178.178 0 0 0 .108.11l5.822 1.76h.047a.115.115 0 0 0 .08-.02.161.161 0 0 0 .077-.1L15.978.19a.151.151 0 0 0-.057-.16zM8.745 12.17l-1.609-.49a.147.147 0 0 0-.143.02.161.161 0 0 0-.066.13v3.01a.156.156 0 0 0 .117.15c.014 0 .029.01.045.01a.162.162 0 0 0 .136-.08l1.609-2.52a.15.15 0 0 0-.089-.23z"/></symbol></svg>